<svg id="svg" version="1.1" xmlns="http://www.w3.org/2000/svg" xmlns:xlink="http://www.w3.org/1999/xlink" width="400" height="400" viewBox="0, 0, 400,400"><g id="svgg"><path id="path0" d="M45.292 8.781 C 43.289 9.103,42.302 9.834,43.333 10.230 C 44.181 10.555,44.352 23.088,43.520 23.920 C 43.147 24.293,43.613 24.400,45.620 24.401 L 48.200 24.402 48.073 20.398 C 47.931 15.910,48.802 14.503,50.500 16.475 C 51.431 17.556,51.508 22.846,50.604 23.596 C 49.630 24.405,50.174 24.607,52.938 24.467 C 55.541 24.334,55.553 24.328,55.178 23.341 C 54.970 22.795,54.782 21.145,54.760 19.674 C 54.684 14.559,53.002 12.703,49.929 14.344 C 49.046 14.815,48.259 15.200,48.178 15.200 C 48.098 15.200,47.980 13.729,47.916 11.932 C 47.790 8.378,47.790 8.378,45.292 8.781 M69.293 10.267 C 66.796 11.151,65.454 13.047,66.057 14.839 C 66.697 16.737,66.826 16.860,70.007 18.604 C 72.763 20.115,72.836 20.194,72.719 21.578 L 72.600 23.000 70.328 23.119 C 68.107 23.236,68.054 23.214,67.928 22.123 C 67.793 20.945,66.653 20.387,65.907 21.133 C 63.596 23.444,69.903 25.698,73.600 23.884 C 77.956 21.745,77.514 18.567,72.481 15.837 C 69.784 14.373,69.600 14.187,69.600 12.924 C 69.600 10.667,73.420 10.119,73.677 12.339 C 73.808 13.458,74.968 13.992,75.693 13.267 C 76.630 12.330,75.661 10.912,73.629 10.247 C 71.318 9.491,71.487 9.491,69.293 10.267 M5.867 10.267 C 5.343 10.790,5.595 13.112,6.200 13.345 C 6.982 13.645,8.029 13.234,7.960 12.654 C 7.814 11.439,8.073 10.831,8.840 10.587 C 10.285 10.129,10.484 10.891,10.478 16.862 C 10.472 24.015,10.514 23.600,9.800 23.600 C 9.470 23.600,9.200 23.780,9.200 24.000 C 9.200 24.237,10.667 24.400,12.800 24.400 C 16.150 24.400,17.462 23.971,15.600 23.484 C 14.921 23.306,14.795 22.922,14.765 20.937 C 14.621 11.480,14.944 9.807,16.727 10.761 C 17.178 11.002,17.604 11.694,17.673 12.300 C 17.884 14.134,18.980 13.681,19.123 11.700 L 19.246 10.000 12.690 10.000 C 9.084 10.000,6.013 10.120,5.867 10.267 M80.629 11.029 C 80.283 11.374,80.000 11.901,80.000 12.200 C 80.000 12.498,79.550 13.096,79.000 13.529 C 77.880 14.409,77.691 15.200,78.600 15.200 C 79.090 15.200,79.201 15.881,79.206 18.900 C 79.213 23.036,79.279 23.222,81.083 24.146 C 82.277 24.757,82.465 24.756,83.783 24.127 C 85.344 23.383,85.626 22.800,84.424 22.800 C 82.647 22.800,82.085 15.852,83.809 15.197 C 85.039 14.729,85.066 14.307,83.900 13.795 C 83.238 13.505,82.967 13.003,82.876 11.900 C 82.738 10.237,81.789 9.869,80.629 11.029 M23.227 14.227 C 21.937 14.660,20.858 15.489,19.700 16.940 C 16.330 21.162,24.224 26.832,28.500 23.261 C 29.589 22.351,29.357 22.189,27.176 22.340 C 24.885 22.499,23.479 21.646,23.682 20.222 C 23.787 19.492,24.124 19.387,26.700 19.282 L 29.600 19.165 29.600 18.013 C 29.600 15.349,26.095 13.267,23.227 14.227 M35.600 14.230 C 33.175 14.973,31.200 17.201,31.200 19.195 C 31.200 20.886,33.541 24.000,34.812 24.000 C 35.225 24.000,36.020 24.209,36.580 24.464 C 37.434 24.853,37.882 24.781,39.375 24.013 C 41.954 22.686,41.983 22.102,39.460 22.312 C 36.693 22.541,35.829 21.656,35.829 18.591 C 35.829 15.503,37.984 13.088,38.589 15.498 C 39.063 17.386,40.681 18.363,41.402 17.196 C 42.030 16.181,38.525 13.013,37.467 13.640 C 37.430 13.661,36.590 13.927,35.600 14.230 M90.200 14.292 C 86.182 16.326,85.139 19.779,87.737 22.454 C 91.210 26.030,96.156 25.057,97.727 20.487 C 99.106 16.474,94.074 12.332,90.200 14.292 M115.196 14.016 C 114.868 14.180,114.112 14.507,113.515 14.742 C 112.174 15.270,110.400 17.991,110.400 19.520 C 110.400 20.892,112.906 24.000,114.012 24.000 C 114.425 24.000,115.234 24.215,115.811 24.478 C 116.623 24.848,117.031 24.848,117.624 24.478 C 118.045 24.215,118.634 24.000,118.933 24.000 C 119.449 24.000,120.800 22.783,120.800 22.318 C 120.800 22.197,119.979 22.191,118.976 22.304 C 116.576 22.574,115.200 21.856,115.200 20.332 L 115.200 19.200 118.200 19.200 C 120.628 19.200,121.200 19.083,121.200 18.587 C 121.200 17.490,120.086 15.274,119.334 14.875 C 118.002 14.169,115.802 13.713,115.196 14.016 M102.000 14.663 C 99.811 15.421,99.664 15.545,100.405 16.003 C 101.205 16.497,101.242 22.784,100.451 23.738 C 99.948 24.345,100.179 24.400,103.240 24.400 C 106.375 24.400,106.524 24.362,105.689 23.777 C 104.688 23.076,104.397 19.101,105.232 17.540 C 105.567 16.914,105.519 16.573,105.015 16.017 C 104.658 15.623,104.419 15.075,104.483 14.800 C 104.664 14.024,103.959 13.985,102.000 14.663 M106.470 14.926 C 105.445 16.016,105.376 16.400,106.205 16.400 C 106.538 16.400,107.145 16.608,107.552 16.863 C 108.574 17.501,109.600 17.015,109.600 15.893 C 109.600 13.938,107.893 13.410,106.470 14.926 M117.029 14.971 C 117.964 15.906,117.770 18.262,116.735 18.533 C 115.733 18.795,114.267 18.138,114.611 17.581 C 114.740 17.373,114.918 16.824,115.008 16.361 C 115.334 14.667,116.158 14.100,117.029 14.971 M26.118 15.638 C 26.618 16.436,26.196 18.239,25.442 18.529 C 24.484 18.896,23.200 18.348,23.200 17.572 C 23.200 15.277,25.102 14.017,26.118 15.638 M93.087 15.122 C 93.817 15.586,93.870 22.783,93.147 23.241 C 91.395 24.351,90.400 22.840,90.400 19.070 C 90.400 15.739,91.504 14.116,93.087 15.122 M57.757 18.633 C 57.891 18.981,58.000 19.439,58.000 19.652 C 58.000 20.582,62.993 19.850,63.128 18.900 C 63.250 18.038,63.133 18.000,60.385 18.000 C 57.932 18.000,57.550 18.092,57.757 18.633 " stroke="none" fill="#fc8404" fill-rule="evenodd"></path></g></svg>